# xmcd
#
# Track frame offsets:
#	150
#	10782
#	25781
#	39547
#	52824
#	68010
#	80224
#	91681
#	111143
#	123556
#	134794
#	148597
#	162032
#	172266
#	181305
#	192217
#	205796
#	214952
#
# Disc length: 3076 seconds
#
# Revision: 1
# Processed by: cddbd v1.5.2PL0 Copyright (c) Steve Scherf et al.
# Submitted via: audiograbber 1.81.02
#
DISCID=fd0c0212
DTITLE=Verschiedene - Country Lovin'
DYEAR=1900
DGENRE=Country
TTITLE0=Ferlin Husky - Wings Of A Dove
TTITLE1=Anne Murray - There Goes My Everything
TTITLE2=Don Williams - Where Do We Go From Here
TTITLE3=Ronnie Dove - One Kiss For Old Times Sake
TTITLE4=David Speegle - You Sure Have A Way Whithout Words
TTITLE5=Don Williams - Follow Me Back To Louisville
TTITLE6=Razzy Bailey - 9,999,999 Tears
TTITLE7=Don Fardon - Who's That Man
TTITLE8=Johnny Lee - This Time
TTITLE9=Mickey Gilley - World Of My Own
TTITLE10=Don Williams - Ruby Tuesday
TTITLE11=Alabama - Patches
TTITLE12=Johnny Russell - One More Mountain To Climp
TTITLE13=Frankie Lane - Your Cheatin' Heart
TTITLE14=Ferlin Husky - Gone
TTITLE15=Johnny Russell - Her And Your Baby
TTITLE16=Mickey Gilley - No Greater Love
TTITLE17=Don Williams - Tears
EXTD=
EXTT0=
EXTT1=
EXTT2=
EXTT3=
EXTT4=
EXTT5=
EXTT6=
EXTT7=
EXTT8=
EXTT9=
EXTT10=
EXTT11=
EXTT12=
EXTT13=
EXTT14=
EXTT15=
EXTT16=
EXTT17=
PLAYORDER=
